<svg id="svg" xmlns="http://www.w3.org/2000/svg" xmlns:xlink="http://www.w3.org/1999/xlink" width="400" height="399.6212121212122" viewBox="0, 0, 400,399.6212121212122"><g id="svgg"><path id="path0" d="M96.690 192.330 C 96.792 313.768,96.850 324.252,97.432 326.601 C 99.113 333.387,101.982 336.403,108.421 338.150 C 111.249 338.917,238.728 339.401,246.804 338.676 C 256.245 337.827,260.338 334.809,262.386 327.185 C 262.950 325.084,263.039 321.581,263.158 296.719 L 263.293 268.627 276.628 268.466 C 294.941 268.246,297.956 267.269,301.150 260.515 C 303.281 256.009,303.220 258.090,303.220 190.152 L 303.220 127.462 302.372 124.284 C 299.748 114.444,296.419 112.969,276.042 112.618 L 263.258 112.398 263.258 86.502 L 263.258 60.606 253.977 60.606 L 244.697 60.606 244.695 188.731 C 244.693 325.888,244.795 319.186,242.685 320.473 C 241.067 321.459,119.376 321.653,117.479 320.672 C 115.174 319.480,115.350 329.836,115.244 189.299 L 115.147 60.606 105.864 60.606 L 96.580 60.606 96.690 192.330 M137.321 69.912 C 130.244 71.234,127.101 74.116,125.120 81.097 C 124.054 84.856,124.056 171.212,125.123 174.973 C 127.919 184.829,131.542 186.542,149.621 186.549 C 173.407 186.558,174.999 184.354,175.000 151.413 L 175.000 137.486 166.193 137.588 L 157.386 137.689 157.197 152.083 C 156.962 169.936,157.314 169.133,149.738 169.124 C 142.284 169.116,142.868 172.569,142.832 128.293 C 142.801 89.839,142.826 89.269,144.570 87.898 C 146.702 86.221,153.778 86.447,155.805 88.257 L 157.008 89.331 157.197 101.389 L 157.386 113.447 166.098 113.447 L 174.811 113.447 174.773 99.432 C 174.713 77.009,173.139 72.979,163.359 70.208 C 160.202 69.314,141.651 69.103,137.321 69.912 M184.470 128.030 L 184.470 186.041 203.314 185.884 C 235.621 185.615,236.153 185.114,236.167 154.924 C 236.177 133.219,235.142 129.184,228.747 125.998 L 226.821 125.038 228.539 124.230 C 234.745 121.314,236.174 116.458,236.174 98.295 C 236.174 80.512,234.857 75.878,228.876 72.622 C 224.876 70.446,223.849 70.347,203.314 70.176 L 184.470 70.020 184.470 128.030 M215.998 88.984 L 217.235 90.088 217.346 101.268 C 217.499 116.711,217.752 116.288,208.345 116.288 L 203.030 116.288 203.030 102.083 L 203.030 87.879 208.896 87.879 L 214.761 87.879 215.998 88.984 M282.521 130.843 C 284.786 132.014,284.650 128.413,284.759 190.012 C 284.866 251.062,284.946 248.584,282.833 250.153 C 281.817 250.908,281.311 250.947,272.606 250.947 L 263.447 250.947 263.351 190.625 L 263.255 130.303 272.366 130.303 C 279.511 130.303,281.702 130.420,282.521 130.843 M215.414 134.700 C 217.437 136.202,217.435 136.187,217.331 151.641 L 217.235 165.972 215.998 167.077 L 214.761 168.182 208.896 168.182 L 203.030 168.182 203.030 151.199 C 203.030 141.859,203.158 134.087,203.314 133.928 C 204.009 133.220,214.306 133.878,215.414 134.700 M136.386 196.044 C 130.054 197.417,127.126 200.272,125.116 207.031 C 124.138 210.323,123.865 293.499,124.814 299.004 C 126.757 310.269,131.275 312.717,150.000 312.654 C 173.051 312.576,174.537 310.650,174.888 280.398 L 175.082 263.636 166.140 263.636 L 157.197 263.636 157.196 277.557 C 157.196 295.457,157.351 295.059,150.341 295.070 C 142.244 295.083,143.016 299.154,142.877 255.682 C 142.730 209.522,142.176 213.209,149.308 212.945 C 157.195 212.653,157.197 212.657,157.197 228.018 L 157.197 239.394 166.144 239.394 L 175.091 239.394 174.891 225.095 C 174.571 202.266,172.825 198.207,162.399 196.053 C 158.519 195.252,140.069 195.245,136.386 196.044 M184.470 254.173 L 184.470 312.892 193.845 312.791 L 203.220 312.689 203.317 286.837 L 203.414 260.985 218.002 260.985 L 232.590 260.985 232.488 252.367 L 232.386 243.750 217.898 243.651 L 203.409 243.552 203.409 228.215 L 203.409 212.879 219.886 212.879 L 236.364 212.879 236.364 204.167 L 236.364 195.455 210.417 195.455 L 184.470 195.455 184.470 254.173 " stroke="none" fill="#fafafa" fill-rule="evenodd"></path><path id="path1" d="M184.659 0.416 C 69.289 9.929,-13.712 112.667,1.689 226.894 C 15.834 331.810,111.053 408.133,216.477 399.057 C 338.405 388.561,422.315 273.736,395.020 154.735 C 373.050 58.947,282.289 -7.634,184.659 0.416 M115.244 189.299 C 115.350 329.836,115.174 319.480,117.479 320.672 C 119.376 321.653,241.067 321.459,242.685 320.473 C 244.795 319.186,244.693 325.888,244.695 188.731 L 244.697 60.606 253.977 60.606 L 263.258 60.606 263.258 86.502 L 263.258 112.398 276.042 112.618 C 296.419 112.969,299.748 114.444,302.372 124.284 L 303.220 127.462 303.220 190.152 C 303.220 258.090,303.281 256.009,301.150 260.515 C 297.956 267.269,294.941 268.246,276.628 268.466 L 263.293 268.627 263.158 296.719 C 263.039 321.581,262.950 325.084,262.386 327.185 C 260.338 334.809,256.245 337.827,246.804 338.676 C 238.728 339.401,111.249 338.917,108.421 338.150 C 101.982 336.403,99.113 333.387,97.432 326.601 C 96.850 324.252,96.792 313.768,96.690 192.330 L 96.580 60.606 105.864 60.606 L 115.147 60.606 115.244 189.299 M163.359 70.208 C 173.139 72.979,174.713 77.009,174.773 99.432 L 174.811 113.447 166.098 113.447 L 157.386 113.447 157.197 101.389 L 157.008 89.331 155.805 88.257 C 153.778 86.447,146.702 86.221,144.570 87.898 C 142.826 89.269,142.801 89.839,142.832 128.293 C 142.868 172.569,142.284 169.116,149.738 169.124 C 157.314 169.133,156.962 169.936,157.197 152.083 L 157.386 137.689 166.193 137.588 L 175.000 137.486 175.000 151.413 C 174.999 184.354,173.407 186.558,149.621 186.549 C 131.542 186.542,127.919 184.829,125.123 174.973 C 124.056 171.212,124.054 84.856,125.120 81.097 C 127.101 74.116,130.244 71.234,137.321 69.912 C 141.651 69.103,160.202 69.314,163.359 70.208 M224.588 70.972 C 234.239 73.510,236.174 78.074,236.174 98.295 C 236.174 116.458,234.745 121.314,228.539 124.230 L 226.821 125.038 228.747 125.998 C 235.142 129.184,236.177 133.219,236.167 154.924 C 236.153 185.114,235.621 185.615,203.314 185.884 L 184.470 186.041 184.470 128.030 L 184.470 70.020 203.314 70.176 C 219.433 70.311,222.511 70.426,224.588 70.972 M203.030 102.083 L 203.030 116.288 208.345 116.288 C 217.752 116.288,217.499 116.711,217.346 101.268 L 217.235 90.088 215.998 88.984 L 214.761 87.879 208.896 87.879 L 203.030 87.879 203.030 102.083 M263.351 190.625 L 263.447 250.947 272.606 250.947 C 282.966 250.947,283.408 250.834,284.380 247.931 C 285.137 245.668,284.878 133.951,284.112 132.453 C 283.084 130.443,282.321 130.303,272.366 130.303 L 263.255 130.303 263.351 190.625 M203.314 133.928 C 203.158 134.087,203.030 141.859,203.030 151.199 L 203.030 168.182 208.896 168.182 L 214.761 168.182 215.998 167.077 L 217.235 165.972 217.331 151.641 C 217.455 133.129,217.862 134.000,208.975 133.774 C 206.018 133.700,203.471 133.768,203.314 133.928 M162.399 196.053 C 172.825 198.207,174.571 202.266,174.891 225.095 L 175.091 239.394 166.144 239.394 L 157.197 239.394 157.197 228.018 C 157.197 212.657,157.195 212.653,149.308 212.945 C 142.176 213.209,142.730 209.522,142.877 255.682 C 143.016 299.154,142.244 295.083,150.341 295.070 C 157.351 295.059,157.196 295.457,157.196 277.557 L 157.197 263.636 166.140 263.636 L 175.082 263.636 174.888 280.398 C 174.537 310.650,173.051 312.576,150.000 312.654 C 131.275 312.717,126.757 310.269,124.814 299.004 C 123.865 293.499,124.138 210.323,125.116 207.031 C 127.126 200.272,130.054 197.417,136.386 196.044 C 140.069 195.245,158.519 195.252,162.399 196.053 M236.364 204.167 L 236.364 212.879 219.886 212.879 L 203.409 212.879 203.409 228.215 L 203.409 243.552 217.898 243.651 L 232.386 243.750 232.488 252.367 L 232.590 260.985 218.002 260.985 L 203.414 260.985 203.317 286.837 L 203.220 312.689 193.845 312.791 L 184.470 312.892 184.470 254.173 L 184.470 195.455 210.417 195.455 L 236.364 195.455 236.364 204.167 " stroke="none" fill="#040404" fill-rule="evenodd"></path></g></svg>